# xmcd
#
# Track frame offsets: 
#        150
#        17349
#        40851
#        56769
#        76876
#        93601
#        114119
#        129299
#        151516
#        165014
#        183239
#        194536
#        210561
#        224466
#        242524
#
# Disc length: 3578 seconds
#
# Revision: 0
# Processed by: cddbd v1.5.2PL0 Copyright (c) Steve Scherf et al.
# Submitted via: ExactAudioCopy v1.3
#
DISCID=ae0df80f
DTITLE=Buddy Guy and Junior Wells - Alone and Acoustic
DYEAR=1991
DGENRE=Chicago Blues
TTITLE0=Give Me My Coat And Shoes
TTITLE1=Big Boat (Buddy And Junior's Thing)
TTITLE2=Sweet Black Girl
TTITLE3=Diggin' My Potatoes
TTITLE4=Don't Leave Me
TTITLE5=Rollin' And Tumblin'
TTITLE6=I'm In The Mood
TTITLE7=High Heel Sneakers
TTITLE8=Wrong Doing Woman
TTITLE9=Cut You Loose
TTITLE10=Sally Mae
TTITLE11=Catfish Blues
TTITLE12=My Home's In The Delta
TTITLE13=Boogie Chillen
TTITLE14=Medley: Baby What You Want Me To Do - That's Allright
EXTD=
EXTT0=
EXTT1=
EXTT2=
EXTT3=
EXTT4=
EXTT5=
EXTT6=
EXTT7=
EXTT8=
EXTT9=
EXTT10=
EXTT11=
EXTT12=
EXTT13=
EXTT14=
PLAYORDER=
